# xmcd
#
# Track frame offsets: 
#        150
#        14190
#        31626
#        56531
#        77180
#        91954
#        125411
#        139893
#        156165
#        170804
#        187905
#        206281
#        226616
#        248487
#        268095
#        280710
#        299283
#        312252
#
# Disc length: 4755 seconds
#
# Revision: 0
# Processed by: cddbd v1.5.2PL0 Copyright (c) Steve Scherf et al.
# Submitted via: ExactAudioCopy v0.95b4
#
DISCID=f3129112
DTITLE=Alvin Lee - The Best Songs CD2
DYEAR=2010
DGENRE=Blues-rock
TTITLE0=Got A Lot Of Living To Do
TTITLE1=Nutbush City Limits
TTITLE2=High Times
TTITLE3=Real Life Blues
TTITLE4=She's So Cute
TTITLE5=The Bluest Blues
TTITLE6=Wrong Side Of The Law
TTITLE7=Talk Don't Bother Me
TTITLE8=Baby Don't You Cry
TTITLE9=Back In My Arms Again
TTITLE10=Heart Of Stone
TTITLE11=Education
TTITLE12=Anytime U Want Me
TTITLE13=It's All Good
TTITLE14=Only Here For The Ride
TTITLE15=The Price Of The Love
TTITLE16=Double Loser
TTITLE17=I Want You (She's So Heavy)
EXTD=
EXTT0=
EXTT1=
EXTT2=
EXTT3=
EXTT4=
EXTT5=
EXTT6=
EXTT7=
EXTT8=
EXTT9=
EXTT10=
EXTT11=
EXTT12=
EXTT13=
EXTT14=
EXTT15=
EXTT16=
EXTT17=
PLAYORDER=
